<svg xmlns="http://www.w3.org/2000/svg" version="1.1" viewBox="-5.0 -10.0 110.0 135.0">
 <path d="m74.16 51.352-11.316-9.9453c-1.5664-1.3945-3.9219-1.3945-5.4883 0-1.9766 1.7344-14.785 12.996-19.207 16.883-0.84766 0.74609-2.1211 0.69922-2.918-0.097656-0.87891-0.87109-0.83984-2.3008 0.085937-3.1211 1.4492-1.2812 3.4219-3.0312 4.2734-3.7812l-8.6602-7.6094c-1.5664-1.3945-3.9219-1.3945-5.4648-0.019532l-9.7734 8.5938v-26.449h64.305v19.719c1.8477-2.1406 4.4531-3.6836 7.332-3.5781v-18.605c0-2.7852-2.2734-5.0586-5.0391-5.0586l-68.918-0.003906c-2.7656 0-5.0391 2.2734-5.0391 5.0586v48.57c0 2.7852 2.2734 5.0586 5.0391 5.0586 0.023437-0.0625 38.898 0.125 38.82-0.0625 0.8125-2.6758 1.8047-5.4922 3.8789-7.4609 2.2383-2.2305 18.09-18.09 18.09-18.09z"/>
 <path d="m79.648 51.93c-6.418 6.6133-15.348 14.949-21.562 21.801-0.89453 1.2812-1.2891 3.0586-1.8203 4.5234-0.72656 1.957 1.3633 4.043 3.3242 3.3242 1.9102-0.65234 4.3711-1.2812 5.7656-2.8281 3.7422-3.7422 20.555-20.555 20.555-20.555-0.11719-0.13281-4.8047-4.8125-6.2578-6.2578z"/>
 <path d="m90.363 47.473c-1.6875-1.6758-4.5742-1.6445-6.2578 0l-1.4141 1.4375c0.32812 0.31641 5.4961 5.4961 6.2578 6.2578l1.4141-1.4375c1.7344-1.7148 1.7344-4.5234 0-6.2578z"/>
</svg>